<?xml version="1.0" encoding="iso-8859-1"?>
<!-- Generator: Adobe Illustrator 21.0.0, SVG Export Plug-In . SVG Version: 6.00 Build 0)  -->
<svg xmlns="http://www.w3.org/2000/svg" xmlns:xlink="http://www.w3.org/1999/xlink" version="1.1" id="Capa_1" x="0px" y="0px" viewBox="0 0 512 512" style="enable-background:new 0 0 512 512;" xml:space="preserve" width="512" height="512">
<g>
	<path style="fill:#F03800;" d="M420.099,101.199H91.901l30-91C123.701,4.2,129.401,0,136,0h240c6.599,0,12.299,4.2,14.099,10.199   L420.099,101.199z"/>
	<path style="fill:#AE2538;" d="M420.099,101.199H256V0h120c6.599,0,12.299,4.2,14.099,10.199L420.099,101.199z"/>
	<polygon style="fill:#7C8388;" points="390.099,121 121.901,121 146.8,30 365.2,30  "/>
	<polygon style="fill:#575F64;" points="390.099,121 256,121 256,30 365.2,30  "/>
	<path style="fill:#F03800;" d="M271,15v91c0,8.399-6.599,15-15,15s-15-6.601-15-15V15c0-8.401,6.599-15,15-15S271,6.599,271,15z"/>
	<path style="fill:#AE2538;" d="M271,15v91c0,8.399-6.599,15-15,15V0C264.401,0,271,6.599,271,15z"/>
	<path style="fill:#FF641A;" d="M512,106v121c0,8.399-6.599,15-15,15H15c-8.401,0-15-6.601-15-15V106c0-8.401,6.599-15,15-15h482   C505.401,91,512,97.599,512,106z"/>
	<path style="fill:#F03800;" d="M512,106v121c0,8.399-6.599,15-15,15H256V91h241C505.401,91,512,97.599,512,106z"/>
	<path style="fill:#575F64;" d="M151,271.941c0-16.538-13.462-30-30-30s-30,13.462-30,30V302l30,30l30-30V271.941z"/>
	<path style="fill:#7C8388;" d="M121,272c-33.091,0-60-26.909-60-60s26.909-60,60-60s60,26.909,60,60S154.091,272,121,272z"/>
	<path style="fill:#32393F;" d="M391,241.941c-16.538,0-30,13.462-30,30V302l30,30l30-30v-30.059   C421,255.403,407.538,241.941,391,241.941z"/>
	<path style="fill:#575F64;" d="M391,272c-33.091,0-60-26.909-60-60s26.909-60,60-60s60,26.909,60,60S424.091,272,391,272z"/>
	<path style="fill:#E0F4FF;" d="M121,182c-16.538,0-30,13.462-30,30s13.462,30,30,30s30-13.462,30-30S137.538,182,121,182z"/>
	<path style="fill:#BBDCFF;" d="M391,182c-16.538,0-30,13.462-30,30s13.462,30,30,30s30-13.462,30-30S407.538,182,391,182z"/>
	<path style="fill:#BBDCFF;" d="M417.997,488.006l-52.529-70.049c-4.98-6.65-14.399-7.998-20.991-3.003L301,497   c0,8.291,6.709,15,15,15h90c5.684,0,10.869-3.208,13.418-8.291C421.952,498.626,421.41,492.547,417.997,488.006z"/>
	<path style="fill:#BBDCFF;" d="M167.523,414.954c-6.592-4.951-16.011-3.633-20.991,3.003l-52.529,70.049   c-3.413,4.541-3.955,10.62-1.421,15.703C95.131,508.792,100.316,512,106,512h90c8.291,0,15-6.709,15-15L167.523,414.954z"/>
	<path style="fill:#FDBF00;" d="M421,302v60c0,8.099-2.999,15.599-8.699,21.299l-96.301,96V512H196v-32.701l-96.301-96   c-5.7-5.7-8.699-13.2-8.699-21.299v-60h60v47.699L178.599,377l14.7,15L256,419.9l62.701-27.9l15-15L361,349.699V302H421z"/>
	<path style="fill:#FF9100;" d="M421,302v60c0,8.099-2.999,15.599-8.699,21.299l-96.301,96V512h-60v-92.1l62.701-27.9l15-15   L361,349.699V302H421z"/>
	<path style="fill:#FFCEBF;" d="M256,272c-32.999,0-60,26.999-60,60c0,32.999,27.001,60,60,60s60-27.001,60-60   C316,298.999,288.999,272,256,272z"/>
	<path style="fill:#7C8388;" d="M318.701,392l-52.202,55.8C263.5,450.5,259.6,452,256,452s-7.5-1.5-10.499-4.2L193.299,392H318.701z   "/>
	<path style="fill:#FFB99C;" d="M316,332c0,32.999-27.001,60-60,60V272C288.999,272,316,298.999,316,332z"/>
	<path style="fill:#575F64;" d="M318.701,392l-52.202,55.8C263.5,450.5,259.6,452,256,452v-60H318.701z"/>
</g>















</svg>
