<?xml version="1.0" encoding="iso-8859-1"?>
<!-- Generator: Adobe Illustrator 21.0.0, SVG Export Plug-In . SVG Version: 6.00 Build 0)  -->
<svg xmlns="http://www.w3.org/2000/svg" xmlns:xlink="http://www.w3.org/1999/xlink" version="1.1" id="Capa_1" x="0px" y="0px" viewBox="0 0 512 512" style="enable-background:new 0 0 512 512;" xml:space="preserve" width="512" height="512">
<g>
	<path style="fill:#9BFCFF;" d="M482,226v241c0,8.399-6.599,15-15,15H45c-8.401,0-15-6.601-15-15V226C30,101.8,131.8,0,256,0   S482,101.8,482,226z"/>
	<path style="fill:#76E2F8;" d="M482,226v241c0,8.399-6.599,15-15,15H256V0C380.2,0,482,101.8,482,226z"/>
	<path style="fill:#FFB99C;" d="M391,211c0-20.101-11.4-41.4-30.601-52.2c0.3-2.401,0.601-5.101,0.601-7.8c0-33.001-27.001-60-60-60   c-17.999,0-33.9,8.099-45,20.7C244.9,99.099,228.999,91,211,91c-32.999,0-60,26.999-60,60c0,2.699,0.3,5.4,0.601,7.8   C132.4,169.6,121,190.899,121,211c0,10.499,2.999,21,8.101,30c-5.101,9-8.101,19.499-8.101,30c0,18.6,9.6,39.899,30.3,51.899   c0,0,0,0,0.3,0.3C151.3,325.6,151,328.299,151,331c0,32.999,27.001,60,60,60c17.999,0,33.9-8.101,45-20.7   c11.1,12.599,27.001,20.7,45,20.7c32.999,0,60-27.001,60-60c0-2.701-0.3-5.4-0.601-7.8c0.3-0.3,0.3-0.3,0.3-0.3   c20.099-11.7,30.3-32.401,30.3-51.899c0-10.501-2.999-21-8.101-30C388.001,232,391,221.499,391,211z"/>
	<path style="fill:#FF9468;" d="M382.899,241c5.101,9,8.101,19.499,8.101,30c0,19.499-10.201,40.199-30.3,51.899c0,0,0,0-0.3,0.3   c0.3,2.401,0.601,5.099,0.601,7.8c0,32.999-27.001,60-60,60c-17.999,0-33.9-8.101-45-20.7V111.7C267.1,99.099,283.001,91,301,91   c32.999,0,60,26.999,60,60c0,2.699-0.3,5.4-0.601,7.8C379.6,169.6,391,190.899,391,211C391,221.499,388.001,232,382.899,241z"/>
	<circle style="fill:#25D9F8;" cx="406" cy="376" r="15"/>
	<circle style="fill:#76E2F8;" cx="106" cy="346" r="15"/>
	<path style="fill:#7C8388;" d="M512,482v15c0,8.399-6.599,15-15,15H15c-8.401,0-15-6.601-15-15v-15c0-16.5,13.5-30,30-30h452   C498.5,452,512,465.5,512,482z"/>
	<path style="fill:#FFCEBF;" d="M211,361c-16.538,0-30-13.462-30-30c16.025,0,31.099-6.24,42.422-17.578   c5.859-5.859,5.859-15.366,0-21.211c-5.859-5.859-15.352-5.859-21.211,0C184.155,310.267,151,297.157,151,271   c0-5.349,1.95-10.373,4.744-15H181c8.291,0,15-6.709,15-15s-6.709-15-15-15h-25.256c-2.794-4.627-4.744-9.651-4.744-15   c0-25.553,32.564-39.858,51.211-21.211c5.859,5.859,15.351,5.86,21.211,0c5.859-5.859,5.859-15.352,0-21.211   c-11.31-11.31-26.803-16.968-42.307-16.996C181.112,151.386,181,151.196,181,151c0-16.538,13.462-30,30-30s30,13.462,30,30v180   C241,347.538,227.538,361,211,361z"/>
	<path style="fill:#FFB99C;" d="M301,361c-16.538,0-30-13.462-30-30V151c0-16.538,13.462-30,30-30s30,13.462,30,30   c0,0.196-0.112,0.386-0.115,0.582c-15.504,0.027-30.996,5.685-42.307,16.996c-5.859,5.859-5.859,15.352,0,21.211   s15.352,5.859,21.211,0C327.723,171.856,361,184.715,361,211c0,5.349-1.95,10.373-4.744,15H331c-8.291,0-15,6.709-15,15   s6.709,15,15,15h25.256c2.794,4.627,4.744,9.651,4.744,15c0,26.204-33.2,39.222-51.211,21.211c-5.859-5.859-15.352-5.859-21.211,0   c-5.859,5.845-5.859,15.352,0,21.211C299.901,324.76,314.975,331,331,331C331,347.538,317.538,361,301,361z"/>
	<path style="fill:#575F64;" d="M512,482v15c0,8.399-6.599,15-15,15H256v-60h226C498.5,452,512,465.5,512,482z"/>
</g>















</svg>
