<?xml version="1.0" encoding="iso-8859-1"?>
<!-- Generator: Adobe Illustrator 21.0.0, SVG Export Plug-In . SVG Version: 6.00 Build 0)  -->
<svg xmlns="http://www.w3.org/2000/svg" xmlns:xlink="http://www.w3.org/1999/xlink" version="1.1" id="Capa_1" x="0px" y="0px" viewBox="0 0 512 512" style="enable-background:new 0 0 512 512;" xml:space="preserve" width="512" height="512">
<g>
	<path style="fill:#FFDA2D;" d="M507.545,365.162l-38.255-37.953l-31.82-10.607l10.607,31.82l38.255,37.953   c5.863,5.863,15.351,5.863,21.213,0C513.407,380.512,513.407,371.025,507.545,365.162z"/>
	<path style="fill:#FFDA2D;" d="M507.545,471.228c-5.94,5.94-15.273,5.94-21.213,0l-91.288-90.986c-5.94-5.94-5.94-15.273,0-21.213   c5.94-5.94,15.273-5.94,21.213,0l91.288,90.986C513.485,455.955,513.485,465.288,507.545,471.228z"/>
	<path style="fill:#FDBF00;" d="M507.545,471.228c-5.94,5.94-15.273,5.94-21.213,0l-91.288-90.986c-5.94-5.94-5.94-15.273,0-21.213   L507.545,471.228z"/>
	<path style="fill:#FDBF00;" d="M443.905,471.228l-59.469-59.167l-31.82-10.607l10.607,31.82l59.469,59.167   c5.863,5.863,15.351,5.863,21.213,0S449.768,477.091,443.905,471.228z"/>
	
		<rect x="309.437" y="303.422" transform="matrix(0.7071 -0.7071 0.7071 0.7071 -133.7726 373.8881)" style="fill:#7C8388;" width="150" height="90"/>
	
		<rect x="320.42" y="329.938" transform="matrix(0.7071 -0.7071 0.7071 0.7071 -160.2891 362.9046)" style="fill:#575F64;" width="75" height="90"/>
	<path style="fill:#575F64;" d="M299.584,369.635l-78.296-78.296l-44.933-2.507l-18.282,54.846   c-1.792,5.397-0.394,11.332,3.625,15.351l84.853,84.853c5.863,5.863,15.351,5.863,21.213,0l31.82-31.82V369.635z"/>
	<path style="fill:#7C8388;" d="M448.076,263.569l31.82-31.82c5.863-5.863,5.863-15.351,0-21.213l-84.853-84.853   c-4.019-4.019-9.954-5.417-15.351-3.625l-54.846,18.282l1.253,43.68l79.55,79.55L448.076,263.569z"/>
	<path style="fill:#76E2F8;" d="M395.043,316.602l-63.64-21.213l21.213,63.64l-53.033,53.033L13.205,125.683   c-17.607-17.607-17.607-46.032,0-63.64l42.426-42.426c2.758-2.758,6.576-4.455,10.607-4.242l6.151-0.214l227.194,99.915   l148.492,148.492L395.043,316.602z"/>
	<path style="fill:#25D9F8;" d="M331.404,295.389l21.213,63.64l-53.033,53.033L13.205,125.683c-17.607-17.607-17.607-46.032,0-63.64   l42.426-42.426L331.404,295.389z"/>
	<path style="fill:#7C8388;" d="M278.371,93.863l-56.669-56.669c-14.17-14.17-33.011-21.969-53.043-21.969H114.88H72.453   l110.458,110.458c1.647,1.647,3.656,2.89,5.863,3.625l63.64,21.213c5.397,1.792,11.332,0.394,15.351-3.625l31.82-31.82   L278.371,93.863z"/>
	<path style="fill:#7C8388;" d="M395.043,316.602l-42.426,42.426l-84.853-84.853c-11.667-11.667-11.667-30.759,0-42.426   c11.667-11.667,30.759-11.667,42.426,0L395.043,316.602z"/>
	<path style="fill:#575F64;" d="M373.83,337.815l-21.213,21.213l-84.853-84.853c-11.667-11.667-11.667-30.759,0-42.426   L373.83,337.815z"/>
</g>















</svg>
