<svg height="511pt" viewBox="-59 0 511 511.99948" width="511pt" xmlns="http://www.w3.org/2000/svg"><path d="m365.40625 494.238281h-176.242188l-52.128906-90.707031-59.070312-.597656c-5.777344-.050782-10.4375-4.757813-10.4375-10.539063v-76.839843h-35.992188c-5.667968 0-10.324218-4.46875-10.539062-10.144532-.917969-24.714844-.164063-89.289062 28.578125-134.449218.453125-.691407.894531-1.382813 1.347656-2.074219 8.4375-12.699219 22.871094-24.476563 30.578125-33.839844h214.6875c4.605469 11.40625 7.695312 23.550781 9.003906 36.230469 1.226563 11.703125.9375 23.851562-1.089844 36.242187l-26.054687 152.363281c-.421875 2.464844.125 4.988282 1.515625 7.058594zm0 0" fill="#fecbaa"/><path d="m365.410156 494.246094h-24.277344l-85.851562-127.308594c-1.394531-2.0625-1.929688-4.59375-1.515625-7.050781l26.050781-152.375c2.03125-12.382813 2.324219-24.535157 1.101563-36.238281-1.316407-12.675782-4.402344-24.828126-9.015625-36.226563h24.28125c4.613281 11.398437 7.699218 23.550781 9.015625 36.226563 1.222656 11.703124.929687 23.855468-1.105469 36.238281l-26.050781 152.375c-.414063 2.457031.121093 4.988281 1.519531 7.050781zm0 0" fill="#ffae85"/><path d="m305.195312 171.273438c-.882812.105468-1.777343.164062-2.6875.164062h-244.882812c-2.722656 0-5.410156-.15625-8.046875-.476562.445313-.695313.890625-1.386719 1.347656-2.074219 8.4375-12.703125 22.867188-24.476563 30.578125-33.84375h214.683594c4.605469 11.402343 7.699219 23.554687 9.007812 36.230469zm0 0" fill="#ffae85"/><path d="m304.109375 207.515625-24.808594 145.042969c-1.003906 5.863281-7.003906 9.453125-12.644531 7.5625l-70.71875-23.710938c-4.292969-1.445312-7.195312-5.472656-7.195312-10v-133.160156h-35.425782c-2.53125 0-4.859375-.894531-6.671875-2.386719-2.367187-1.929687-3.867187-4.867187-3.867187-8.15625v-50.351562h152.292968c9.707032 22.597656 13.414063 48.324219 9.039063 75.160156zm0 0" fill="#c97f4c"/><path d="m344.230469 441.703125c-21.621094 7.46875-114.425781 38.410156-177.476563 41.574219-5.597656.277344-9.976562 4.917968-9.976562 10.523437v7.65625c0 5.824219 4.71875 10.542969 10.542968 10.542969h215.476563c6.171875 0 11-5.273438 10.507813-11.429688-1.109376-13.84375-8.113282-37.789062-39.964844-57.789062-2.726563-1.710938-6.070313-2.128906-9.109375-1.078125zm0 0" fill="#f80"/><path d="m302.511719 159.800781h-244.886719c-31.550781 0-57.125-25.578125-57.125-57.125v-52.703125c0-5.820312 4.71875-10.542968 10.542969-10.542968h212.351562c49.519531 0 89.660157 40.144531 89.660157 89.660156v20.167968c0 5.820313-4.71875 10.542969-10.542969 10.542969zm0 0" fill="#aa6344"/><path d="m145.925781 319.542969c0 12.433593-4.378906 22.777343-13.042969 30.726562-16.253906 14.949219-43.667968 17.011719-57.515624 17.011719-3.808594 0-6.589844-.15625-7.839844-.25v-15.472656c.207031 0 .421875.011718.640625.03125.050781 0 2.824219.214844 7.179687.214844 3.8125 0 8.816406-.164063 14.289063-.792969 14.671875-1.675781 26.023437-5.878907 32.8125-12.132813 5.40625-4.976562 8.023437-11.300781 8.023437-19.339844 0-4.261718 3.460938-7.722656 7.726563-7.722656 4.277343 0 7.726562 3.460938 7.726562 7.726563zm0 0" fill="#ffae85"/><path d="m373.828125 153.238281c0 74.125-60.085937 134.210938-134.207031 134.210938-74.125 0-134.210938-60.085938-134.210938-134.210938 0-74.121093 60.085938-134.207031 134.210938-134.207031 74.121094 0 134.207031 60.085938 134.207031 134.207031zm0 0" fill="#fc3e81"/><path d="m373.828125 153.234375c0 74.125-60.082031 134.21875-134.207031 134.21875s-134.207032-60.09375-134.207032-134.21875c0-3.863281.164063-7.6875.488282-11.472656 5.824218 68.742187 63.460937 122.726562 133.71875 122.726562 70.261718 0 127.894531-53.984375 133.722656-122.726562.324219 3.785156.484375 7.609375.484375 11.472656zm0 0" fill="#f01054"/><path d="m89.488281 251.449219c-7.546875 0-14.308593-4.207031-17.644531-10.984375-1.882812-3.828125-.308594-8.460938 3.519531-10.34375 3.828125-1.886719 8.460938-.308594 10.34375 3.519531.5625 1.140625 1.851563 2.359375 3.78125 2.359375 1.933594 0 3.21875-1.21875 3.78125-2.359375 1.882813-3.828125 6.515625-5.40625 10.34375-3.519531 3.828125 1.882812 5.40625 6.515625 3.519531 10.34375-3.335937 6.777344-10.09375 10.984375-17.644531 10.984375zm0 0" fill="#aa6344"/><path d="m211.425781 172.242188h56.386719c2.746094-22.847657 11.882812-44.53125 25.972656-63.027344 8.707032-11.425782 13.878906-25.695313 13.878906-41.171875 0-38.667969-32.257812-69.804688-71.332031-67.964844-35.0625 1.648437-63.386719 30.261719-64.707031 65.339844-.625 16.664062 4.746094 32.050781 14.125 44.183593 14.121094 18.261719 22.992188 39.914063 25.675781 62.640626zm0 0" fill="#ffdf46"/><path d="m307.664062 68.042969c0 15.476562-5.171874 29.742187-13.878906 41.171875-14.09375 18.496094-23.230468 40.175781-25.96875 63.027344h-16.1875c2.742188-22.851563 11.875-44.53125 25.96875-63.027344 8.710938-11.429688 13.878906-25.695313 13.878906-41.171875 0-34.839844-26.203124-63.582031-59.972656-67.570313 1.601563-.179687 3.207032-.3125 4.828125-.394531 39.070313-1.839844 71.332031 29.296875 71.332031 67.964844zm0 0" fill="#f9b200"/><path d="m250.074219 96.230469c-4.269531 0-7.726563 3.457031-7.726563 7.726562v4.886719c0 .808594-1.191406 1.746094-2.726562 1.746094-1.539063 0-2.726563-.9375-2.726563-1.746094v-4.886719c0-4.269531-3.460937-7.726562-7.726562-7.726562-4.269531 0-7.726563 3.457031-7.726563 7.726562v63.734375c0 4.265625 3.457032 7.722656 7.726563 7.722656 4.265625 0 7.726562-3.457031 7.726562-7.722656v-20.953125c.890625.125 1.796875.214844 2.726563.214844.929687 0 1.835937-.089844 2.726562-.214844v20.953125c0 4.265625 3.460938 7.722656 7.726563 7.722656s7.726562-3.457031 7.726562-7.722656v-63.734375c0-4.265625-3.460937-7.726562-7.726562-7.726562zm-10.457031 35.269531c-1.535157 0-2.726563-.9375-2.726563-1.746094v-3.921875c.894531.128907 1.800781.214844 2.726563.214844.929687 0 1.835937-.085937 2.730468-.214844v3.921875c0 .808594-1.191406 1.746094-2.730468 1.746094zm0 0" fill="#f80"/><path d="m267.441406 231.929688h-55.644531c-5.585937 0-10.113281-4.527344-10.113281-10.117188v-41.476562c0-5.585938 4.527344-10.117188 10.113281-10.117188h55.644531c5.585938 0 10.117188 4.527344 10.117188 10.117188v41.476562c0 5.589844-4.53125 10.117188-10.117188 10.117188zm0 0" fill="#a7c7d3"/><g fill="#bddff4"><path d="m274.523438 198.683594h-68.792969c-4.269531 0-7.726563-3.457032-7.726563-7.722656 0-4.269532 3.457032-7.726563 7.726563-7.726563h68.792969c4.265624 0 7.722656 3.457031 7.722656 7.726563 0 4.265624-3.457032 7.722656-7.722656 7.722656zm0 0"/><path d="m274.523438 218.917969h-68.792969c-4.269531 0-7.726563-3.457031-7.726563-7.726563 0-4.265625 3.457032-7.726562 7.726563-7.726562h68.792969c4.265624 0 7.722656 3.460937 7.722656 7.726562 0 4.269532-3.457032 7.726563-7.722656 7.726563zm0 0"/></g></svg>