<svg height="512pt" viewBox="-56 0 512 512" width="512pt" xmlns="http://www.w3.org/2000/svg"><g fill="#7f8c8d"><path d="m26.035156 269.015625c-4.792968 0-8.679687-3.882813-8.679687-8.675781v-43.390625c0-9.585938 7.769531-17.355469 17.355469-17.355469h43.390624c4.792969 0 8.679688 3.882812 8.679688 8.675781s-3.886719 8.679688-8.679688 8.679688h-43.390624v43.390625c0 4.792968-3.882813 8.675781-8.675782 8.675781zm0 0"/><path d="m373.152344 269.015625c-4.792969 0-8.679688-3.882813-8.679688-8.675781v-43.390625h-43.386718c-4.792969 0-8.679688-3.886719-8.679688-8.679688s3.886719-8.675781 8.679688-8.675781h43.386718c9.585938 0 17.359375 7.769531 17.359375 17.355469v43.390625c0 4.792968-3.886719 8.675781-8.679687 8.675781zm0 0"/><path d="m43.390625 295.050781c-4.792969 0-8.679687-3.886719-8.679687-8.679687v-17.355469h-17.355469v17.355469c0 4.792968-3.886719 8.679687-8.675781 8.679687-4.792969 0-8.679688-3.886719-8.679688-8.679687v-17.355469c0-9.585937 7.769531-17.355469 17.355469-17.355469h17.355469c9.585937 0 17.355468 7.769532 17.355468 17.355469v17.355469c0 4.792968-3.882812 8.679687-8.675781 8.679687zm0 0"/><path d="m390.507812 295.050781c-4.792968 0-8.675781-3.886719-8.675781-8.679687v-17.355469h-17.359375v17.355469c0 4.792968-3.882812 8.679687-8.675781 8.679687s-8.679687-3.886719-8.679687-8.679687v-17.355469c0-9.585937 7.773437-17.355469 17.355468-17.355469h17.359375c9.582031 0 17.355469 7.769532 17.355469 17.355469v17.355469c0 4.792968-3.886719 8.679687-8.679688 8.679687zm0 0"/></g><path d="m176.265625 51.253906c0 25.90625-21.003906 46.910156-46.910156 46.910156-25.910157 0-46.914063-21.003906-46.914063-46.910156 0-25.910156 21.003906-46.914062 46.914063-46.914062 25.90625 0 46.910156 21.003906 46.910156 46.914062zm0 0" fill="#fff"/><path d="m315.113281 51.253906c0 25.90625-21.003906 46.910156-46.910156 46.910156-25.910156 0-46.914063-21.003906-46.914063-46.910156 0-25.910156 21.003907-46.914062 46.914063-46.914062 25.90625 0 46.910156 21.003906 46.910156 46.914062zm0 0" fill="#fff"/><path d="m130.167969 104.136719c-28.753907 0-52.066407-23.3125-52.066407-52.070313 0-28.753906 23.3125-52.066406 52.066407-52.066406 28.757812 0 52.070312 23.3125 52.070312 52.066406-.03125 28.746094-23.324219 52.039063-52.070312 52.070313zm0-86.78125c-19.167969 0-34.710938 15.542969-34.710938 34.710937 0 19.171875 15.542969 34.714844 34.710938 34.714844 19.171875 0 34.714843-15.542969 34.714843-34.714844 0-9.203125-3.660156-18.035156-10.167968-24.542968-6.511719-6.511719-15.339844-10.167969-24.546875-10.167969zm0 0" fill="#7f8c8d"/><path d="m269.015625 104.136719c-28.753906 0-52.066406-23.3125-52.066406-52.070313 0-28.753906 23.3125-52.066406 52.066406-52.066406 28.757813 0 52.070313 23.3125 52.070313 52.066406-.03125 28.746094-23.324219 52.039063-52.070313 52.070313zm0-86.78125c-19.167969 0-34.710937 15.542969-34.710937 34.710937 0 19.171875 15.542968 34.714844 34.710937 34.714844 19.171875 0 34.714844-15.542969 34.714844-34.714844 0-9.203125-3.660157-18.035156-10.167969-24.542968-6.511719-6.511719-15.339844-10.167969-24.546875-10.167969zm0 0" fill="#7f8c8d"/><path d="m138.847656 52.066406c0 4.792969-3.886718 8.679688-8.679687 8.679688s-8.675781-3.886719-8.675781-8.679688c0-4.792968 3.882812-8.675781 8.675781-8.675781s8.679687 3.882813 8.679687 8.675781zm0 0" fill="#2c2f38"/><path d="m277.695312 52.066406c0 4.792969-3.886718 8.679688-8.679687 8.679688s-8.675781-3.886719-8.675781-8.679688c0-4.792968 3.882812-8.675781 8.675781-8.675781s8.679687 3.882813 8.679687 8.675781zm0 0" fill="#2c2f38"/><path d="m225.628906 60.746094h-52.070312c-4.792969 0-8.675782-3.886719-8.675782-8.679688 0-4.792968 3.882813-8.675781 8.675782-8.675781h52.070312c4.789063 0 8.675782 3.882813 8.675782 8.675781 0 4.792969-3.886719 8.679688-8.675782 8.679688zm0 0" fill="#7f8c8d"/><path d="m199.59375 173.558594c-4.792969 0-8.679688-3.882813-8.679688-8.675782v-112.816406c0-4.792968 3.886719-8.675781 8.679688-8.675781s8.675781 3.882813 8.675781 8.675781v112.816406c0 4.792969-3.882812 8.675782-8.675781 8.675782zm0 0" fill="#7f8c8d"/><path d="m86.78125 173.558594h95.457031v69.425781h-95.457031c-4.792969 0-8.679688-3.886719-8.679688-8.679687v-52.066407c0-4.792969 3.886719-8.679687 8.679688-8.679687zm0 0" fill="#a5a5a4"/><path d="m242.984375 173.558594h69.421875c4.792969 0 8.679688 3.886718 8.679688 8.679687v52.066407c0 4.792968-3.886719 8.679687-8.679688 8.679687h-69.421875zm0 0" fill="#a5a5a4"/><path d="m182.238281 373.152344h34.710938v60.746094h-34.710938zm0 0" fill="#a5a5a4"/><path d="m69.421875 425.21875h260.339844v34.714844h-260.339844zm0 0" fill="#7f8c8d"/><path d="m26.035156 338.441406h34.710938c9.585937 0 17.355468 7.769532 17.355468 17.355469v138.847656c0 9.585938-7.769531 17.355469-17.355468 17.355469h-34.710938c-9.585937 0-17.355468-7.769531-17.355468-17.355469v-138.847656c0-9.585937 7.769531-17.355469 17.355468-17.355469zm0 0" fill="#7f5b53"/><path d="m69.421875 381.832031h-52.066406c-4.792969 0-8.675781-3.886719-8.675781-8.679687 0-4.792969 3.882812-8.679688 8.675781-8.679688h52.066406c4.792969 0 8.679687 3.886719 8.679687 8.679688 0 4.792968-3.886718 8.679687-8.679687 8.679687zm0 0" fill="#cb8252"/><path d="m69.421875 416.542969h-52.066406c-4.792969 0-8.675781-3.886719-8.675781-8.679688s3.882812-8.675781 8.675781-8.675781h52.066406c4.792969 0 8.679687 3.882812 8.679687 8.675781s-3.886718 8.679688-8.679687 8.679688zm0 0" fill="#cb8252"/><path d="m69.421875 451.253906h-52.066406c-4.792969 0-8.675781-3.886718-8.675781-8.675781 0-4.792969 3.882812-8.679687 8.675781-8.679687h52.066406c4.792969 0 8.679687 3.886718 8.679687 8.679687 0 4.789063-3.886718 8.675781-8.679687 8.675781zm0 0" fill="#cb8252"/><path d="m69.421875 485.964844h-52.066406c-4.792969 0-8.675781-3.882813-8.675781-8.675782 0-4.792968 3.882812-8.679687 8.675781-8.679687h52.066406c4.792969 0 8.679687 3.886719 8.679687 8.679687 0 4.792969-3.886718 8.675782-8.679687 8.675782zm0 0" fill="#cb8252"/><path d="m338.441406 338.441406h34.710938c9.585937 0 17.355468 7.769532 17.355468 17.355469v138.847656c0 9.585938-7.769531 17.355469-17.355468 17.355469h-34.710938c-9.585937 0-17.355468-7.769531-17.355468-17.355469v-138.847656c0-9.585937 7.769531-17.355469 17.355468-17.355469zm0 0" fill="#7f5b53"/><path d="m381.832031 381.832031h-52.070312c-4.792969 0-8.675781-3.886719-8.675781-8.679687 0-4.792969 3.882812-8.679688 8.675781-8.679688h52.070312c4.792969 0 8.675781 3.886719 8.675781 8.679688 0 4.792968-3.882812 8.679687-8.675781 8.679687zm0 0" fill="#cb8252"/><path d="m381.832031 416.542969h-52.070312c-4.792969 0-8.675781-3.886719-8.675781-8.679688s3.882812-8.675781 8.675781-8.675781h52.070312c4.792969 0 8.675781 3.882812 8.675781 8.675781s-3.882812 8.679688-8.675781 8.679688zm0 0" fill="#cb8252"/><path d="m381.832031 451.253906h-52.070312c-4.792969 0-8.675781-3.886718-8.675781-8.675781 0-4.792969 3.882812-8.679687 8.675781-8.679687h52.070312c4.792969 0 8.675781 3.886718 8.675781 8.679687 0 4.789063-3.882812 8.675781-8.675781 8.675781zm0 0" fill="#cb8252"/><path d="m381.832031 485.964844h-52.070312c-4.792969 0-8.675781-3.882813-8.675781-8.675782 0-4.792968 3.882812-8.679687 8.675781-8.679687h52.070312c4.792969 0 8.675781 3.886719 8.675781 8.679687 0 4.792969-3.882812 8.675782-8.675781 8.675782zm0 0" fill="#cb8252"/><path d="m121.492188 164.882812h156.203124c4.792969 0 8.675782 3.882813 8.675782 8.675782v164.882812c0 28.753906-23.308594 52.066406-52.066406 52.066406h-69.421876c-28.757812 0-52.070312-23.3125-52.070312-52.066406v-164.882812c0-4.792969 3.886719-8.675782 8.679688-8.675782zm0 0" fill="#f0c419"/><path d="m147.527344 269.015625h104.132812v60.746094c0 14.378906-11.65625 26.035156-26.03125 26.035156h-52.070312c-14.378906 0-26.03125-11.65625-26.03125-26.035156zm0 0" fill="#f29c1f"/><path d="m182.238281 269.015625h34.710938v34.714844h-34.710938zm0 0" fill="#cb8252"/><path d="m147.527344 199.59375h34.710937v34.710938h-34.710937zm0 0" fill="#cb8252"/><path d="m225.628906 216.949219c0 4.792969-3.886718 8.679687-8.679687 8.679687s-8.679688-3.886718-8.679688-8.679687 3.886719-8.679688 8.679688-8.679688 8.679687 3.886719 8.679687 8.679688zm0 0" fill="#24ae5f"/><path d="m260.339844 216.949219c0 4.792969-3.886719 8.679687-8.679688 8.679687-4.792968 0-8.675781-3.886718-8.675781-8.679687s3.882813-8.679688 8.675781-8.679688c4.792969 0 8.679688 3.886719 8.679688 8.679688zm0 0" fill="#e64c3c"/></svg>